<svg width="28" height="28" viewBox="0 0 28 28" fill="none" xmlns="http://www.w3.org/2000/svg">
<path fill-rule="evenodd" clip-rule="evenodd" d="M14 0.666656C6.63996 0.666656 0.666626 6.63999 0.666626 14C0.666626 21.36 6.63996 27.3333 14 27.3333C21.36 27.3333 27.3333 21.36 27.3333 14C27.3333 6.63999 21.36 0.666656 14 0.666656ZM14 24.6667C8.11996 24.6667 3.33329 19.88 3.33329 14C3.33329 8.11999 8.11996 3.33332 14 3.33332C19.88 3.33332 24.6666 8.11999 24.6666 14C24.6666 19.88 19.88 24.6667 14 24.6667ZM19.1733 9.05332L11.3333 16.8933L8.82663 14.3867C8.57752 14.137 8.23932 13.9967 7.88663 13.9967C7.53394 13.9967 7.19574 14.137 6.94663 14.3867C6.42663 14.9067 6.42663 15.7467 6.94663 16.2667L10.4 19.72C10.92 20.24 11.76 20.24 12.28 19.72L21.0666 10.9333C21.5866 10.4133 21.5866 9.57332 21.0666 9.05332C20.5466 8.53332 19.6933 8.53332 19.1733 9.05332Z" fill="#999E9C"/>
</svg>
