<svg width="28" height="28" viewBox="0 0 28 28" fill="none" xmlns="http://www.w3.org/2000/svg">
<path fill-rule="evenodd" clip-rule="evenodd" d="M16.5201 9.60008L14.0001 12.1201L11.4801 9.60008C11.231 9.35041 10.8928 9.2101 10.5401 9.2101C10.1874 9.2101 9.84919 9.35041 9.60008 9.60008C9.08008 10.1201 9.08008 10.9601 9.60008 11.4801L12.1201 14.0001L9.60008 16.5201C9.08008 17.0401 9.08008 17.8801 9.60008 18.4001C10.1201 18.9201 10.9601 18.9201 11.4801 18.4001L14.0001 15.8801L16.5201 18.4001C17.0401 18.9201 17.8801 18.9201 18.4001 18.4001C18.9201 17.8801 18.9201 17.0401 18.4001 16.5201L15.8801 14.0001L18.4001 11.4801C18.9201 10.9601 18.9201 10.1201 18.4001 9.60008C17.8801 9.09341 17.0267 9.09341 16.5201 9.60008ZM14.0001 0.666748C6.62675 0.666748 0.666748 6.62675 0.666748 14.0001C0.666748 21.3734 6.62675 27.3334 14.0001 27.3334C21.3734 27.3334 27.3334 21.3734 27.3334 14.0001C27.3334 6.62675 21.3734 0.666748 14.0001 0.666748Z" fill="#999E9C"/>
</svg>
