<svg width="28" height="28" viewBox="0 0 28 28" fill="none" xmlns="http://www.w3.org/2000/svg">
<path fill-rule="evenodd" clip-rule="evenodd" d="M7.33335 14C7.33335 14.7334 7.93335 15.3334 8.66669 15.3334H19.3334C20.0667 15.3334 20.6667 14.7334 20.6667 14C20.6667 13.2667 20.0667 12.6667 19.3334 12.6667H8.66669C7.93335 12.6667 7.33335 13.2667 7.33335 14ZM14 0.666687C6.64002 0.666687 0.666687 6.64002 0.666687 14C0.666687 21.36 6.64002 27.3334 14 27.3334C21.36 27.3334 27.3334 21.36 27.3334 14C27.3334 6.64002 21.36 0.666687 14 0.666687ZM14 24.6667C8.12002 24.6667 3.33335 19.88 3.33335 14C3.33335 8.12002 8.12002 3.33335 14 3.33335C19.88 3.33335 24.6667 8.12002 24.6667 14C24.6667 19.88 19.88 24.6667 14 24.6667Z" fill="#999E9C"/>
</svg>
