<svg width="28" height="28" viewBox="0 0 28 28" fill="none" xmlns="http://www.w3.org/2000/svg">
<path fill-rule="evenodd" clip-rule="evenodd" d="M16.52 9.60002L14 12.12L11.48 9.60002C11.2309 9.35035 10.8927 9.21004 10.54 9.21004C10.1873 9.21004 9.84913 9.35035 9.60002 9.60002C9.08002 10.12 9.08002 10.96 9.60002 11.48L12.12 14L9.60002 16.52C9.08002 17.04 9.08002 17.88 9.60002 18.4C10.12 18.92 10.96 18.92 11.48 18.4L14 15.88L16.52 18.4C17.04 18.92 17.88 18.92 18.4 18.4C18.92 17.88 18.92 17.04 18.4 16.52L15.88 14L18.4 11.48C18.92 10.96 18.92 10.12 18.4 9.60002C17.88 9.09335 17.0267 9.09335 16.52 9.60002ZM14 0.666687C6.62669 0.666687 0.666687 6.62669 0.666687 14C0.666687 21.3734 6.62669 27.3334 14 27.3334C21.3734 27.3334 27.3334 21.3734 27.3334 14C27.3334 6.62669 21.3734 0.666687 14 0.666687ZM14 24.6667C8.12002 24.6667 3.33335 19.88 3.33335 14C3.33335 8.12002 8.12002 3.33335 14 3.33335C19.88 3.33335 24.6667 8.12002 24.6667 14C24.6667 19.88 19.88 24.6667 14 24.6667Z" fill="#999E9C"/>
</svg>
