<svg width="385" height="347" viewBox="0 0 385 347" fill="none" xmlns="http://www.w3.org/2000/svg">
<rect id="quarto2" x="7" y="7" width="141" height="173" fill="#54BC82" fill-opacity="0.16"/>
<rect id="sala" x="7" y="186" width="240" height="154" fill="#54BC82" fill-opacity="0.16"/>
<rect id="cozinha" x="247" y="186" width="132" height="172" fill="#54BC82" fill-opacity="0.16"/>
<rect id="hall" x="148" y="127" width="78" height="59" fill="#54BC82" fill-opacity="0.16"/>
<rect id="banheiro" x="148" y="7" width="72" height="120" fill="#FADFD6"/>
<path fill-rule="evenodd" clip-rule="evenodd" d="M169.759 25.2929L167.89 27.1621L166.021 25.2929C165.836 25.1077 165.585 25.0036 165.324 25.0036C165.062 25.0036 164.811 25.1077 164.626 25.2929C164.241 25.6786 164.241 26.3017 164.626 26.6874L166.495 28.5566L164.626 30.4258C164.241 30.8115 164.241 31.4346 164.626 31.8203C165.012 32.206 165.635 32.206 166.021 31.8203L167.89 29.9511L169.759 31.8203C170.145 32.206 170.768 32.206 171.154 31.8203C171.539 31.4346 171.539 30.8115 171.154 30.4258L169.284 28.5566L171.154 26.6874C171.539 26.3017 171.539 25.6786 171.154 25.2929C170.768 24.9171 170.135 24.9171 169.759 25.2929ZM167.89 18.6666C162.421 18.6666 158 23.0875 158 28.5566C158 34.0258 162.421 38.4466 167.89 38.4466C173.359 38.4466 177.78 34.0258 177.78 28.5566C177.78 23.0875 173.359 18.6666 167.89 18.6666Z" fill="#999E9C"/>
<rect id="quarto2" x="226" y="7" width="152" height="172" fill="#54BC82" fill-opacity="0.16"/>
<circle cx="77.8883" cy="120.888" r="8.15786" fill="white"/>
<path fill-rule="evenodd" clip-rule="evenodd" d="M77.8883 111C72.43 111 68 115.43 68 120.888C68 126.347 72.43 130.777 77.8883 130.777C83.3467 130.777 87.7766 126.347 87.7766 120.888C87.7766 115.43 83.3467 111 77.8883 111ZM81.7249 117.22L75.9106 123.034L74.0516 121.175C73.8668 120.99 73.616 120.886 73.3544 120.886C73.0929 120.886 72.8421 120.99 72.6573 121.175C72.2717 121.561 72.2717 122.184 72.6573 122.569L75.2184 125.13C75.604 125.516 76.227 125.516 76.6126 125.13L83.129 118.614C83.5147 118.228 83.5147 117.605 83.129 117.22C82.7434 116.834 82.1105 116.834 81.7249 117.22Z" fill="#999E9C"/>
<circle cx="299.888" cy="120.888" r="8.15786" fill="white"/>
<path fill-rule="evenodd" clip-rule="evenodd" d="M299.888 111C294.43 111 290 115.43 290 120.888C290 126.347 294.43 130.777 299.888 130.777C305.347 130.777 309.777 126.347 309.777 120.888C309.777 115.43 305.347 111 299.888 111ZM303.725 117.22L297.911 123.034L296.052 121.175C295.867 120.99 295.616 120.886 295.354 120.886C295.093 120.886 294.842 120.99 294.657 121.175C294.272 121.561 294.272 122.184 294.657 122.569L297.218 125.13C297.604 125.516 298.227 125.516 298.613 125.13L305.129 118.614C305.515 118.228 305.515 117.605 305.129 117.22C304.743 116.834 304.111 116.834 303.725 117.22Z" fill="#999E9C"/>
<circle cx="120.575" cy="280.414" r="8.15786" fill="white"/>
<path fill-rule="evenodd" clip-rule="evenodd" d="M120.575 270.526C115.116 270.526 110.687 274.956 110.687 280.414C110.687 285.872 115.116 290.302 120.575 290.302C126.033 290.302 130.463 285.872 130.463 280.414C130.463 274.956 126.033 270.526 120.575 270.526ZM124.411 276.745L118.597 282.56L116.738 280.701C116.553 280.516 116.303 280.412 116.041 280.412C115.779 280.412 115.529 280.516 115.344 280.701C114.958 281.086 114.958 281.709 115.344 282.095L117.905 284.656C118.291 285.042 118.914 285.042 119.299 284.656L125.816 278.14C126.201 277.754 126.201 277.131 125.816 276.745C125.43 276.36 124.797 276.36 124.411 276.745Z" fill="#999E9C"/>
<circle cx="319.888" cy="280.414" r="8.15786" fill="white"/>
<path fill-rule="evenodd" clip-rule="evenodd" d="M319.888 270.526C314.43 270.526 310 274.956 310 280.414C310 285.872 314.43 290.302 319.888 290.302C325.347 290.302 329.777 285.872 329.777 280.414C329.777 274.956 325.347 270.526 319.888 270.526ZM323.725 276.745L317.911 282.56L316.052 280.701C315.867 280.516 315.616 280.412 315.354 280.412C315.093 280.412 314.842 280.516 314.657 280.701C314.272 281.086 314.272 281.709 314.657 282.095L317.218 284.656C317.604 285.042 318.227 285.042 318.613 284.656L325.129 278.14C325.515 277.754 325.515 277.131 325.129 276.745C324.743 276.36 324.111 276.36 323.725 276.745Z" fill="#999E9C"/>
<rect width="6.70172" height="347" fill="black"/>
<rect x="377.53" width="6.70172" height="347" fill="black"/>
<rect x="219.667" width="6.70172" height="127.333" fill="black"/>
<rect x="243.496" y="232.326" width="6.70172" height="107.972" fill="black"/>
<rect x="144.459" width="6.70172" height="127.333" fill="black"/>
<rect x="192.116" y="127.333" width="6.70172" height="31.2747" transform="rotate(-90 192.116 127.333)" fill="black"/>
<rect x="6.7016" y="6.70166" width="6.7017" height="370.828" transform="rotate(-90 6.7016 6.70166)" fill="black"/>
<rect x="6.7016" y="186.159" width="6.70171" height="141.481" transform="rotate(-90 6.7016 186.159)" fill="black"/>
<rect x="196.584" y="186.159" width="6.70171" height="180.946" transform="rotate(-90 196.584 186.159)" fill="black"/>
<rect x="60.3156" y="347" width="6.7017" height="317.215" transform="rotate(-90 60.3156 347)" fill="black"/>
<rect x="148.182" y="127.333" width="6.70172" height="8.19099" transform="rotate(-90 148.182 127.333)" fill="black"/>
<rect x="148.182" y="183.18" width="6.70172" height="8.19099" transform="rotate(180 148.182 183.18)" fill="black"/>
<rect x="203.286" y="183.18" width="6.70172" height="8.19099" transform="rotate(180 203.286 183.18)" fill="black"/>
<rect x="6.7016" y="347" width="6.70172" height="8.19099" transform="rotate(-90 6.7016 347)" fill="black"/>
<path d="M303.968 263.552C305.593 263.552 306.815 262.798 307.608 261.81L306.451 260.822C305.866 261.55 305.008 262.083 303.968 262.083C302.213 262.083 300.952 260.783 300.952 258.885C300.952 256.935 302.174 255.622 303.968 255.622C304.956 255.622 305.853 256.155 306.451 256.883L307.608 255.908C306.594 254.66 305.229 254.14 303.968 254.14C300.978 254.14 299.314 256.259 299.314 258.885C299.314 261.914 301.459 263.552 303.968 263.552ZM311.919 263.578C313.869 263.578 315.247 262.239 315.247 260.315C315.247 258.365 313.869 257.039 311.919 257.039C309.917 257.039 308.591 258.443 308.591 260.315C308.591 262.174 309.917 263.578 311.919 263.578ZM311.919 262.252C310.827 262.252 310.073 261.394 310.073 260.315C310.073 259.21 310.814 258.352 311.919 258.352C312.959 258.352 313.765 259.145 313.765 260.315C313.765 261.459 312.946 262.252 311.919 262.252ZM321.421 258.131V257.13H316.377V258.365H319.419V258.404L316.156 262.447V263.474H321.369V262.239H318.106V262.226L321.421 258.131ZM323.764 256.194C324.31 256.194 324.752 255.752 324.752 255.219C324.752 254.699 324.31 254.257 323.764 254.257C323.218 254.257 322.789 254.699 322.789 255.219C322.789 255.752 323.218 256.194 323.764 256.194ZM323.036 263.474H324.492V257.13H323.036V263.474ZM330.088 257.039C329.269 257.039 328.489 257.377 327.956 258.014H327.943V257.13H326.487V263.474H327.943V260.289C327.943 259.041 328.593 258.352 329.581 258.352C330.452 258.352 330.959 258.781 330.959 260.12V263.474H332.415V259.743C332.415 257.832 331.479 257.039 330.088 257.039ZM337.82 257.039C336.962 257.039 336.195 257.338 335.662 257.936H335.649V253.906H334.193V263.474H335.649V260.25C335.649 259.002 336.299 258.352 337.352 258.352C338.223 258.352 338.73 258.794 338.73 260.055V263.474H340.186V259.678C340.186 257.78 339.211 257.039 337.82 257.039ZM346.617 257.13V257.897H346.591C346.123 257.338 345.434 257.039 344.628 257.039C342.886 257.039 341.573 258.417 341.573 260.328C341.573 262.291 342.886 263.578 344.641 263.578C345.512 263.578 346.201 263.24 346.656 262.629H346.682V263.474H348.073V257.13H346.617ZM344.875 262.252C343.796 262.252 343.055 261.459 343.055 260.341C343.055 259.119 343.861 258.352 344.875 258.352C345.915 258.352 346.682 259.21 346.682 260.341C346.682 261.485 345.863 262.252 344.875 262.252Z" fill="black"/>
<path d="M111.887 264.104C113.369 264.104 115.072 263.246 115.072 261.335C115.072 259.554 113.798 259.125 112.212 258.501C111.094 258.072 110.47 257.838 110.483 257.162C110.496 256.473 111.068 256.083 111.783 256.083C112.407 256.083 113.148 256.408 113.902 257.032L114.838 255.797C113.902 255.056 112.875 254.653 111.783 254.666C110.184 254.666 108.858 255.797 108.858 257.24C108.858 258.93 110.249 259.554 111.653 260.048C112.823 260.464 113.434 260.724 113.434 261.53C113.434 262.206 112.914 262.648 111.9 262.648C111.107 262.648 110.197 262.245 109.534 261.439L108.546 262.648C109.508 263.649 110.704 264.104 111.887 264.104ZM121.284 257.656V258.423H121.258C120.79 257.864 120.101 257.565 119.295 257.565C117.553 257.565 116.24 258.943 116.24 260.854C116.24 262.817 117.553 264.104 119.308 264.104C120.179 264.104 120.868 263.766 121.323 263.155H121.349V264H122.74V257.656H121.284ZM119.542 262.778C118.463 262.778 117.722 261.985 117.722 260.867C117.722 259.645 118.528 258.878 119.542 258.878C120.582 258.878 121.349 259.736 121.349 260.867C121.349 262.011 120.53 262.778 119.542 262.778ZM124.668 264H126.124V254.432H124.668V264ZM132.773 257.656V258.423H132.747C132.279 257.864 131.59 257.565 130.784 257.565C129.042 257.565 127.729 258.943 127.729 260.854C127.729 262.817 129.042 264.104 130.797 264.104C131.668 264.104 132.357 263.766 132.812 263.155H132.838V264H134.229V257.656H132.773ZM131.031 262.778C129.952 262.778 129.211 261.985 129.211 260.867C129.211 259.645 130.017 258.878 131.031 258.878C132.071 258.878 132.838 259.736 132.838 260.867C132.838 262.011 132.019 262.778 131.031 262.778Z" fill="black"/>
<path d="M279.109 94.3416L278.03 93.3796C278.55 92.6126 278.849 91.6636 278.849 90.5716C278.849 87.7506 276.86 85.8526 274.195 85.8526C271.426 85.8526 269.528 87.8546 269.528 90.5716C269.528 93.2886 271.426 95.2906 274.195 95.2906C275.3 95.2906 276.275 94.9656 277.055 94.3936L278.225 95.4596L279.109 94.3416ZM274.195 93.8216C272.479 93.8216 271.153 92.4696 271.153 90.5716C271.153 88.6736 272.479 87.3216 274.195 87.3216C276.002 87.3216 277.211 88.7646 277.211 90.5716C277.211 91.1956 277.068 91.7806 276.795 92.2746L275.833 91.4166L274.962 92.4696L275.885 93.3146C275.417 93.6396 274.845 93.8216 274.195 93.8216ZM284.994 88.8426V91.8846C284.994 93.2496 284.214 93.9646 283.369 93.9646C282.498 93.9646 282.108 93.5746 282.108 92.3136V88.8426H280.652V92.7036C280.652 94.5886 281.627 95.2906 283.031 95.2906C283.772 95.2906 284.487 94.9656 284.994 94.3546V95.1866H286.45V88.8426H284.994ZM292.952 88.8426V89.6096H292.926C292.458 89.0506 291.769 88.7516 290.963 88.7516C289.221 88.7516 287.908 90.1296 287.908 92.0406C287.908 94.0036 289.221 95.2906 290.976 95.2906C291.847 95.2906 292.536 94.9526 292.991 94.3416H293.017V95.1866H294.408V88.8426H292.952ZM291.21 93.9646C290.131 93.9646 289.39 93.1716 289.39 92.0536C289.39 90.8316 290.196 90.0646 291.21 90.0646C292.25 90.0646 293.017 90.9226 293.017 92.0536C293.017 93.1976 292.198 93.9646 291.21 93.9646ZM299.69 88.7516C298.923 88.7516 298.208 89.1286 297.714 89.8046H297.701V88.8426H296.245V95.1866H297.701V92.1836C297.701 91.1436 298.325 90.3506 299.43 90.3506C299.534 90.3506 299.703 90.3636 299.872 90.3766V88.7516H299.69ZM302.967 95.2906C303.799 95.2906 304.202 95.1216 304.579 94.9136L304.202 93.6526C303.864 93.8346 303.513 93.9256 303.266 93.9256C302.85 93.9256 302.655 93.6916 302.655 93.0416V90.0776H304.514V88.8426H302.655V86.5806L301.199 86.7366V88.8426H300.419V90.0776H301.199V93.1846C301.199 94.6016 301.875 95.2906 302.967 95.2906ZM308.476 95.2906C310.426 95.2906 311.804 93.9516 311.804 92.0276C311.804 90.0776 310.426 88.7516 308.476 88.7516C306.474 88.7516 305.148 90.1556 305.148 92.0276C305.148 93.8866 306.474 95.2906 308.476 95.2906ZM308.476 93.9646C307.384 93.9646 306.63 93.1066 306.63 92.0276C306.63 90.9226 307.371 90.0646 308.476 90.0646C309.516 90.0646 310.322 90.8576 310.322 92.0276C310.322 93.1716 309.503 93.9646 308.476 93.9646ZM319.957 95.2906C322.115 95.2906 323.389 93.4186 323.389 90.7276C323.389 87.8156 321.972 86.1646 319.957 86.1646C317.812 86.1646 316.525 88.0236 316.525 90.7276C316.525 93.6266 317.942 95.2906 319.957 95.2906ZM319.957 93.8866C318.813 93.8866 318.059 92.7036 318.059 90.7276C318.059 88.7256 318.787 87.5556 319.957 87.5556C321.127 87.5556 321.855 88.7256 321.855 90.7276C321.855 92.7166 321.153 93.8866 319.957 93.8866ZM326.51 95.1866H328.018V86.2556H326.796L324.183 88.1536L324.898 89.2716L326.51 88.0626V95.1866Z" fill="black"/>
<path d="M47.5277 94.3416L46.4487 93.3796C46.9687 92.6126 47.2677 91.6636 47.2677 90.5716C47.2677 87.7506 45.2787 85.8526 42.6137 85.8526C39.8447 85.8526 37.9467 87.8546 37.9467 90.5716C37.9467 93.2886 39.8447 95.2906 42.6137 95.2906C43.7187 95.2906 44.6937 94.9656 45.4737 94.3936L46.6437 95.4596L47.5277 94.3416ZM42.6137 93.8216C40.8977 93.8216 39.5717 92.4696 39.5717 90.5716C39.5717 88.6736 40.8977 87.3216 42.6137 87.3216C44.4207 87.3216 45.6297 88.7646 45.6297 90.5716C45.6297 91.1956 45.4867 91.7806 45.2137 92.2746L44.2517 91.4166L43.3807 92.4696L44.3037 93.3146C43.8357 93.6396 43.2637 93.8216 42.6137 93.8216ZM53.4122 88.8426V91.8846C53.4122 93.2496 52.6322 93.9646 51.7872 93.9646C50.9162 93.9646 50.5262 93.5746 50.5262 92.3136V88.8426H49.0702V92.7036C49.0702 94.5886 50.0452 95.2906 51.4492 95.2906C52.1902 95.2906 52.9052 94.9656 53.4122 94.3546V95.1866H54.8682V88.8426H53.4122ZM61.3698 88.8426V89.6096H61.3438C60.8758 89.0506 60.1868 88.7516 59.3808 88.7516C57.6388 88.7516 56.3258 90.1296 56.3258 92.0406C56.3258 94.0036 57.6388 95.2906 59.3938 95.2906C60.2648 95.2906 60.9538 94.9526 61.4088 94.3416H61.4348V95.1866H62.8258V88.8426H61.3698ZM59.6278 93.9646C58.5488 93.9646 57.8078 93.1716 57.8078 92.0536C57.8078 90.8316 58.6138 90.0646 59.6278 90.0646C60.6678 90.0646 61.4348 90.9226 61.4348 92.0536C61.4348 93.1976 60.6158 93.9646 59.6278 93.9646ZM68.1081 88.7516C67.3411 88.7516 66.6261 89.1286 66.1321 89.8046H66.1191V88.8426H64.6631V95.1866H66.1191V92.1836C66.1191 91.1436 66.7431 90.3506 67.8481 90.3506C67.9521 90.3506 68.1211 90.3636 68.2901 90.3766V88.7516H68.1081ZM71.385 95.2906C72.217 95.2906 72.62 95.1216 72.997 94.9136L72.62 93.6526C72.282 93.8346 71.931 93.9256 71.684 93.9256C71.268 93.9256 71.073 93.6916 71.073 93.0416V90.0776H72.932V88.8426H71.073V86.5806L69.617 86.7366V88.8426H68.837V90.0776H69.617V93.1846C69.617 94.6016 70.293 95.2906 71.385 95.2906ZM76.8944 95.2906C78.8444 95.2906 80.2224 93.9516 80.2224 92.0276C80.2224 90.0776 78.8444 88.7516 76.8944 88.7516C74.8924 88.7516 73.5664 90.1556 73.5664 92.0276C73.5664 93.8866 74.8924 95.2906 76.8944 95.2906ZM76.8944 93.9646C75.8024 93.9646 75.0484 93.1066 75.0484 92.0276C75.0484 90.9226 75.7894 90.0646 76.8944 90.0646C77.9344 90.0646 78.7404 90.8576 78.7404 92.0276C78.7404 93.1716 77.9214 93.9646 76.8944 93.9646ZM88.3758 95.2906C90.5338 95.2906 91.8078 93.4186 91.8078 90.7276C91.8078 87.8156 90.3908 86.1646 88.3758 86.1646C86.2308 86.1646 84.9438 88.0236 84.9438 90.7276C84.9438 93.6266 86.3608 95.2906 88.3758 95.2906ZM88.3758 93.8866C87.2318 93.8866 86.4778 92.7036 86.4778 90.7276C86.4778 88.7256 87.2058 87.5556 88.3758 87.5556C89.5458 87.5556 90.2738 88.7256 90.2738 90.7276C90.2738 92.7166 89.5718 93.8866 88.3758 93.8866ZM95.2767 93.8086V93.7956L97.1877 91.8066C98.3187 90.6366 98.6697 89.7786 98.6697 88.7906C98.6697 87.1526 97.3437 86.1646 95.8747 86.1646C94.4187 86.1646 93.4957 86.8926 92.9887 87.8546L94.0677 88.6216C94.4707 87.9196 95.0557 87.5686 95.7707 87.5686C96.5767 87.5686 97.1357 88.1666 97.1357 88.9596C97.1357 89.7266 96.6027 90.3896 95.8747 91.1566L93.0017 94.1856L93.0277 95.1866H98.7607V93.8086H95.2767Z" fill="black"/>
<path d="M166.265 93.0564L166.252 93.0564C165.875 92.1074 165.017 91.6914 164.159 91.6914C162.651 91.6914 161.91 92.7964 161.91 94.6944L161.91 97.9054L171.14 97.9054L171.14 94.2524C171.14 92.2114 170.074 91.2234 168.605 91.2234C167.331 91.2234 166.525 91.9774 166.265 93.0564ZM163.314 96.3324L163.314 94.9934C163.301 93.7844 163.782 93.2904 164.51 93.2904C165.381 93.2904 165.732 94.0574 165.732 94.8374L165.732 96.3324L163.314 96.3324ZM169.736 94.7204L169.736 96.3324L167.084 96.3324L167.084 94.6944C167.084 93.4854 167.617 92.8614 168.436 92.8614C169.307 92.8614 169.723 93.6154 169.736 94.7204ZM164.796 85.0037L165.563 85.0037L165.563 85.0297C165.004 85.4977 164.705 86.1867 164.705 86.9927C164.705 88.7347 166.083 90.0477 167.994 90.0477C169.957 90.0477 171.244 88.7347 171.244 86.9797C171.244 86.1087 170.906 85.4197 170.295 84.9647L170.295 84.9387L171.14 84.9387L171.14 83.5477L164.796 83.5477L164.796 85.0037ZM169.918 86.7457C169.918 87.8247 169.125 88.5657 168.007 88.5657C166.785 88.5657 166.018 87.7597 166.018 86.7457C166.018 85.7057 166.876 84.9387 168.007 84.9387C169.151 84.9387 169.918 85.7577 169.918 86.7457ZM164.705 78.1094C164.705 78.9284 165.043 79.7084 165.68 80.2414L165.68 80.2544L164.796 80.2544L164.796 81.7104L171.14 81.7104L171.14 80.2544L167.955 80.2544C166.707 80.2544 166.018 79.6044 166.018 78.6164C166.018 77.7454 166.447 77.2384 167.786 77.2384L171.14 77.2384L171.14 75.7824L167.409 75.7824C165.498 75.7824 164.705 76.7184 164.705 78.1094ZM164.705 70.3774C164.705 71.2354 165.004 72.0024 165.602 72.5354L165.602 72.5484L161.572 72.5484L161.572 74.0044L171.14 74.0044L171.14 72.5484L167.916 72.5484C166.668 72.5484 166.018 71.8984 166.018 70.8454C166.018 69.9744 166.46 69.4674 167.721 69.4674L171.14 69.4674L171.14 68.0114L167.344 68.0114C165.446 68.0114 164.705 68.9864 164.705 70.3774ZM167.89 60.4368C166.044 60.4368 164.705 61.6458 164.705 63.5178C164.705 65.2858 166.018 66.6118 167.968 66.6118C169.944 66.6118 171.244 65.2208 171.244 63.3748C171.244 62.1268 170.737 61.2298 170.048 60.6968L169.177 61.7108C169.58 62.0358 169.918 62.5558 169.918 63.2968C169.918 64.2328 169.372 64.9088 168.475 65.1038L168.475 60.4758C168.358 60.4628 168.124 60.4368 167.89 60.4368ZM166.018 63.4398C166.018 62.6078 166.538 62.0878 167.305 61.9058L167.305 65.0778C166.473 64.8698 166.018 64.2458 166.018 63.4398ZM163.86 58.116C163.86 57.57 163.418 57.128 162.885 57.128C162.365 57.128 161.923 57.57 161.923 58.116C161.923 58.662 162.365 59.091 162.885 59.091C163.418 59.091 163.86 58.662 163.86 58.116ZM171.14 58.844L171.14 57.388L164.796 57.388L164.796 58.844L171.14 58.844ZM164.705 51.948C164.705 52.715 165.082 53.43 165.758 53.924L165.758 53.937L164.796 53.937L164.796 55.393L171.14 55.393L171.14 53.937L168.137 53.937C167.097 53.937 166.304 53.313 166.304 52.208C166.304 52.104 166.317 51.935 166.33 51.766L164.705 51.766L164.705 51.948ZM171.244 47.7829C171.244 45.8329 169.905 44.4549 167.981 44.4549C166.031 44.4549 164.705 45.8329 164.705 47.7829C164.705 49.7849 166.109 51.1109 167.981 51.1109C169.84 51.1109 171.244 49.7849 171.244 47.7829ZM169.918 47.7829C169.918 48.8749 169.06 49.6289 167.981 49.6289C166.876 49.6289 166.018 48.8879 166.018 47.7829C166.018 46.7429 166.811 45.9369 167.981 45.9369C169.125 45.9369 169.918 46.7559 169.918 47.7829Z" fill="black"/>
<rect x="197.084" y="86.8777" width="22.0837" height="33.2532" stroke="black"/>
<rect x="211.232" y="49.6459" width="7.93562" height="25.8069" rx="1.5" stroke="black"/>
<path d="M199.935 52.1245C204.7 53.9116 209.367 55.103 211.104 55.4754V68.5064C209.739 68.6305 205.743 69.6234 200.679 72.6019C194.35 76.3251 182.808 71.8573 182.436 62.5494C182.063 53.2415 193.977 49.8906 199.935 52.1245Z" stroke="black"/>
<path d="M205.764 62.5494C205.764 64.6211 204.658 66.5327 202.799 67.9429C200.94 69.3534 198.349 70.2404 195.467 70.2404C192.584 70.2404 189.993 69.3534 188.134 67.9429C186.275 66.5327 185.169 64.6211 185.169 62.5494C185.169 60.4777 186.275 58.5661 188.134 57.1558C189.993 55.7453 192.584 54.8584 195.467 54.8584C198.349 54.8584 200.94 55.7453 202.799 57.1558C204.658 58.5661 205.764 60.4777 205.764 62.5494Z" stroke="black"/>
<path d="M214.699 104.249C214.699 107.451 213.806 110.328 212.388 112.39C210.969 114.455 209.058 115.663 207.008 115.663C204.959 115.663 203.048 114.455 201.628 112.39C200.21 110.328 199.317 107.451 199.317 104.249C199.317 101.047 200.21 98.1702 201.628 96.1077C203.048 94.0429 204.959 92.8348 207.008 92.8348C209.058 92.8348 210.969 94.0429 212.388 96.1077C213.806 98.1702 214.699 101.047 214.699 104.249Z" stroke="black"/>
<circle cx="206.636" cy="103.877" r="1.36159" stroke="black"/>
<rect x="205.275" y="24.3284" width="13.8927" height="1.23391" stroke="black"/>
<circle cx="200.679" cy="24.9452" r="4.34013" stroke="black"/>
<circle cx="200.679" cy="24.9453" r="1.36159" stroke="black"/>
<rect x="199.543" y="22.5794" width="0.798956" height="0.372318" transform="rotate(53.8954 199.543 22.5794)" stroke="black" stroke-width="0.372318"/>
<rect x="238.783" y="232.826" width="16.1266" height="68.2511" stroke="black"/>
<rect x="255.165" y="232.826" width="25.8069" height="68.2511" stroke="black"/>
<rect x="259.633" y="263.356" width="17.6159" height="26.5515" rx="2.5" stroke="black"/>
<circle cx="268.441" cy="276.632" r="1.36159" stroke="black"/>
<path d="M349.734 303.343C349.734 301.41 351.301 299.843 353.234 299.843H377.03V330.863H353.234C351.301 330.863 349.734 329.296 349.734 327.363V303.343Z" stroke="black"/>
<rect x="353.457" y="303.567" width="21.3391" height="24.3176" rx="1.5" stroke="black"/>
<circle cx="367.85" cy="315.725" r="1.73391" stroke="black"/>
<line x1="354.691" y1="328.384" x2="354.691" y2="303.811" stroke="black"/>
<line x1="356.18" y1="328.384" x2="356.18" y2="303.811" stroke="black"/>
<line x1="357.669" y1="328.384" x2="357.669" y2="303.811" stroke="black"/>
<line x1="359.159" y1="328.384" x2="359.159" y2="303.811" stroke="black"/>
<line x1="360.648" y1="328.384" x2="360.648" y2="303.811" stroke="black"/>
</svg>
